<svg width="150" height="32" viewBox="0 0 150 32" fill="none" xmlns="http://www.w3.org/2000/svg">
<path d="M16.2325 24H0V1.00987H4.63949V19.3987H16.2325V24ZM31.3873 21.9965C31.0318 22.3166 30.6497 22.6213 30.2398 22.9099C29.8404 23.1869 29.421 23.4334 28.9787 23.6475C28.5363 23.85 28.0787 24.0105 27.6048 24.128C27.1412 24.2566 26.6623 24.3215 26.1812 24.321C25.1523 24.3279 24.1316 24.1372 23.1745 23.7592C22.2545 23.3968 21.4143 22.858 20.701 22.1733C20.0006 21.4777 19.4455 20.6389 19.0357 19.6557C18.6373 18.6621 18.4376 17.55 18.4376 16.3213V6.82834H22.8353V16.3194C22.8353 16.8965 22.9213 17.4153 23.0933 17.8748C23.2768 18.3239 23.5194 18.7032 23.8213 19.0127C24.1232 19.3232 24.4739 19.5573 24.8723 19.7188C25.2822 19.8793 25.7178 19.9596 26.1812 19.9596C26.6341 19.9596 27.0602 19.8573 27.4586 19.6538C27.8628 19.4444 28.2246 19.162 28.5258 18.8207C28.8277 18.4787 29.0646 18.0946 29.2376 17.6666C29.4096 17.228 29.4955 16.779 29.4955 16.3194V6.8293H33.9096V24H32.8424L31.3873 21.9955V21.9965ZM54.2226 24H48.8226L45.3793 18.7414L41.9035 24H36.5035L42.8245 15.1987L36.5035 6.73376H41.9035L45.3793 11.6551L48.8217 6.73376H54.2217L47.8844 15.1987L54.2217 24H54.2226ZM65.4822 24C64.4503 24.0071 63.4276 23.8056 62.4755 23.4076C61.556 23.0136 60.7171 22.4533 60.001 21.7548C59.2993 21.0472 58.7349 20.2157 58.3366 19.3022C57.9351 18.36 57.7312 17.3455 57.7376 16.3213V11.2223H55.5879V6.86178H57.7376V0H62.1354V6.86178H68.829V11.2223H62.1354V16.3204C62.1354 16.7799 62.2213 17.2127 62.3933 17.6197C62.5662 18.0143 62.8041 18.3621 63.1051 18.6611C63.4137 18.9649 63.7754 19.2094 64.1723 19.3825C64.5871 19.5547 65.0321 19.6421 65.4812 19.6395H68.829V24H65.4822ZM89.0446 15.2627C89.0446 16.5449 88.8134 17.742 88.349 18.8541C87.907 19.9223 87.2649 20.8961 86.4573 21.7232C85.6494 22.532 84.6948 23.1795 83.6446 23.6312C82.5564 24.0953 81.3842 24.3301 80.2013 24.321C79.0185 24.3279 77.8468 24.0932 76.758 23.6312C75.7103 23.1743 74.7564 22.5274 73.9443 21.7232C73.1367 20.8961 72.4946 19.9223 72.0526 18.8541C71.5892 17.742 71.358 16.5449 71.358 15.2618C71.358 13.9586 71.5892 12.751 72.0526 11.6389C72.4894 10.568 73.1321 9.59319 73.9443 8.76975C74.7507 7.95872 75.7061 7.3109 76.758 6.86178C77.8468 6.39985 79.0185 6.16512 80.2013 6.17197C81.4299 6.17197 82.5774 6.39172 83.6446 6.8293C84.7002 7.24213 85.6584 7.87008 86.4583 8.67325C87.256 9.46433 87.8857 10.4217 88.35 11.5433C88.8134 12.6545 89.0446 13.8936 89.0446 15.2627ZM84.599 15.2627C84.599 14.5567 84.4806 13.9213 84.2427 13.3548C84.0337 12.8045 83.7148 12.3026 83.3054 11.8796C82.911 11.4657 82.4311 11.1429 81.899 10.9338C81.3618 10.7076 80.7842 10.5931 80.2013 10.5975C79.5975 10.5975 79.0261 10.7092 78.4873 10.9338C77.9616 11.146 77.4875 11.4685 77.0971 11.8796C76.7092 12.2857 76.4016 12.7777 76.1761 13.3548C75.9497 13.9213 75.836 14.5567 75.836 15.2627C75.836 15.9248 75.9497 16.5401 76.1761 17.1067C76.4016 17.6723 76.7092 18.1643 77.0971 18.5809C77.4965 18.9984 77.9599 19.329 78.4873 19.5745C79.0261 19.8105 79.5975 19.928 80.2013 19.928C80.8051 19.928 81.3707 19.8153 81.899 19.5917C82.4269 19.3746 82.9053 19.0529 83.3054 18.6459C83.7038 18.2389 84.0172 17.7478 84.2427 17.1707C84.4806 16.5936 84.599 15.9573 84.599 15.2627ZM109.212 24H108.145L106.431 21.643C106.011 22.0175 105.564 22.3701 105.09 22.7016C104.623 23.0242 104.131 23.3086 103.618 23.5519C103.101 23.786 102.568 23.9732 102.018 24.1127C101.479 24.2516 100.925 24.3216 100.369 24.321C99.1876 24.3281 98.0166 24.0991 96.9248 23.6475C95.8763 23.2 94.9219 22.5582 94.1121 21.7557C93.3045 20.9283 92.6624 19.9541 92.2204 18.8857C91.757 17.7745 91.5258 16.5669 91.5258 15.2627C91.5258 13.9691 91.757 12.7672 92.2204 11.6551C92.6596 10.5807 93.3019 9.60098 94.1121 8.76975C94.9184 7.95897 95.8734 7.31117 96.9248 6.86178C98.014 6.39985 99.186 6.16512 100.369 6.17197C100.757 6.17197 101.155 6.20446 101.565 6.26847C101.986 6.33248 102.39 6.44045 102.778 6.58949C103.176 6.72803 103.549 6.91433 103.894 7.15032C104.239 7.38535 104.529 7.67389 104.766 8.01592V0H109.212V24ZM104.766 15.2627C104.766 14.6637 104.647 14.0876 104.411 13.5315C104.194 12.9803 103.876 12.4745 103.473 12.0401C103.077 11.6041 102.599 11.2503 102.066 10.9987C101.54 10.7319 100.959 10.5943 100.369 10.5975C99.7653 10.5975 99.1939 10.7045 98.6551 10.9175C98.1321 11.1278 97.6587 11.4448 97.265 11.8481C96.862 12.2669 96.5483 12.7633 96.343 13.307C96.1166 13.8841 96.0038 14.5357 96.0038 15.2627C96.0032 16.4766 96.4526 17.6475 97.265 18.5494C97.6634 18.9764 98.1268 19.3137 98.6551 19.5592C99.193 19.8049 99.7778 19.9307 100.369 19.928C100.972 19.928 101.539 19.8 102.066 19.543C102.594 19.2841 103.071 18.9312 103.473 18.5016C103.872 18.0621 104.184 17.5653 104.411 17.0102C104.645 16.4571 104.766 15.8625 104.766 15.2618V15.2627ZM130.35 24H129.283L127.569 21.643C127.148 22.0175 126.701 22.3701 126.227 22.7016C125.761 23.0242 125.269 23.3086 124.756 23.5519C124.238 23.786 123.705 23.9732 123.156 24.1127C122.617 24.2516 122.063 24.3216 121.507 24.321C120.289 24.321 119.141 24.1175 118.062 23.7115C117.016 23.318 116.06 22.7182 115.25 21.9478C114.452 21.1682 113.821 20.2166 113.358 19.094C112.895 17.9723 112.663 16.6949 112.663 15.2627C112.663 13.9261 112.895 12.7022 113.358 11.5911C113.821 10.4685 114.452 9.50733 115.25 8.70573C116.055 7.90598 117.011 7.27374 118.062 6.84554C119.154 6.39392 120.325 6.16492 121.507 6.17197C122.067 6.17197 122.622 6.24172 123.172 6.38121C123.723 6.52079 124.259 6.71407 124.772 6.95828C125.289 7.20382 125.78 7.49236 126.244 7.82389C126.718 8.15541 127.16 8.51274 127.569 8.89777L129.283 6.86178H130.35V24ZM125.904 15.2627C125.904 14.6637 125.785 14.0876 125.548 13.5315C125.331 12.9803 125.013 12.4745 124.611 12.0401C124.215 11.6041 123.736 11.2503 123.204 10.9987C122.678 10.7319 122.096 10.5943 121.507 10.5975C120.903 10.5975 120.332 10.6987 119.793 10.9022C119.271 11.1008 118.798 11.4068 118.403 11.8003C117.997 12.2231 117.683 12.725 117.481 13.2745C117.254 13.8516 117.141 14.5147 117.141 15.2618C117.141 16.0108 117.254 16.6787 117.481 17.2662C117.707 17.8443 118.015 18.3306 118.403 18.7252C118.801 19.1207 119.264 19.4197 119.793 19.6232C120.341 19.828 120.922 19.9313 121.507 19.928C122.11 19.928 122.676 19.8 123.204 19.543C123.732 19.2841 124.209 18.9312 124.611 18.5016C125.009 18.0621 125.322 17.5653 125.548 17.0102C125.782 16.4571 125.903 15.8625 125.904 15.2618V15.2627ZM138.893 30.5408V26.1325L141.351 26.164C141.782 26.164 142.197 26.0952 142.596 25.9557C142.989 25.8195 143.36 25.625 143.695 25.3787C144.04 25.1331 144.341 24.8389 144.6 24.4968C144.859 24.1662 145.069 23.8022 145.231 23.4076C144.745 23.6102 144.25 23.8127 143.743 24.0162C143.267 24.2154 142.756 24.319 142.24 24.321C141.211 24.3279 140.19 24.1372 139.232 23.7592C138.313 23.3966 137.472 22.8579 136.759 22.1733C136.059 21.4777 135.503 20.6389 135.094 19.6557C134.695 18.6621 134.496 17.55 134.496 16.3213V6.82834H138.893V16.3194C138.893 16.929 138.979 17.4631 139.152 17.9226C139.335 18.3717 139.577 18.751 139.879 19.0615C140.181 19.3605 140.532 19.585 140.93 19.7341C141.34 19.8841 141.777 19.9596 142.24 19.9596C142.692 19.9596 143.118 19.8573 143.517 19.6538C143.921 19.4445 144.283 19.162 144.584 18.8207C144.885 18.4794 145.126 18.089 145.296 17.6666C145.468 17.228 145.554 16.779 145.554 16.3194V6.8293H150V21.836C149.998 23.0055 149.755 24.1622 149.288 25.2344C148.838 26.2736 148.19 27.2155 147.381 28.008C146.575 28.8041 145.626 29.4405 144.584 29.8834C143.501 30.3465 142.334 30.5813 141.157 30.5732L138.893 30.5408Z" fill="#2C373F"/>
</svg>
