<svg width="20" height="21" viewBox="0 0 20 21" fill="none" xmlns="http://www.w3.org/2000/svg">
<path d="M13.0583 15.0128L14.1189 13.9522L11.1844 11.0177L14.1366 8.06551L13.076 7.00485L10.1238 9.95702L7.04787 6.8811L5.98721 7.94176L9.06313 11.0177L6.00489 14.0759L7.06555 15.1366L10.1238 12.0783L13.0583 15.0128ZM17.0711 18.0711C16.1047 19.0374 15.0058 19.7652 13.7742 20.2543C12.5427 20.7433 11.2846 20.9879 10 20.9879C8.71547 20.9879 7.45741 20.7433 6.22586 20.2543C4.99432 19.7652 3.88946 19.0316 2.9113 18.0534C1.94492 17.087 1.21719 15.988 0.728108 14.7565C0.239026 13.525 -0.00256874 12.2698 0.00332372 10.9912C0.00921619 9.71248 0.256703 8.45736 0.745786 7.22582C1.23487 5.99427 1.96849 4.88942 2.94666 3.91125C3.91303 2.94488 5.012 2.21715 6.24354 1.72806C7.47509 1.23898 8.72725 0.994438 10 0.994439C11.2728 0.994439 12.525 1.23898 13.7566 1.72806C14.9881 2.21715 16.0929 2.95077 17.0711 3.92893C18.0375 4.89531 18.7652 5.99427 19.2543 7.22582C19.7434 8.45736 19.9909 9.71248 19.9968 10.9912C20.0027 12.2698 19.7611 13.525 19.272 14.7565C18.7829 15.988 18.0493 17.0929 17.0711 18.0711ZM16.0281 16.9927C17.6898 15.331 18.5177 13.3305 18.5118 10.9912C18.506 8.65182 17.6663 6.6454 15.9928 4.97192C14.3311 3.31021 12.3335 2.47936 10 2.47936C7.66659 2.47936 5.66312 3.31611 3.98964 4.98959C2.32794 6.65129 1.49414 8.65182 1.48825 10.9912C1.48236 13.3305 2.31615 15.3369 3.98964 17.0104C5.65134 18.6721 7.65481 19.503 10 19.503C12.3453 19.503 14.3546 18.6662 16.0281 16.9927Z" fill="currentColor"/>
</svg>
