<svg width="17" height="17" viewBox="0 0 17 17" fill="none" xmlns="http://www.w3.org/2000/svg">
<path d="M8.4998 0C6.2455 0 4.08334 0.895537 2.48954 2.48954C0.895736 4.08354 0 6.24558 0 8.4998C0 10.7542 0.895537 12.9163 2.48954 14.5105C4.08354 16.1045 6.24558 17 8.4998 17C10.7542 17 12.9163 16.1045 14.5105 14.5105C16.1045 12.9163 17 10.7544 17 8.4998C17 7.00786 16.6072 5.54209 15.8612 4.25006C15.1151 2.95787 14.0421 1.88484 12.7501 1.13887C11.4579 0.392907 9.99198 0 8.4998 0ZM10.4095 15.6134C11.0403 14.6085 11.5295 13.1182 11.7883 11.3596L15.2885 11.3598C14.851 12.3923 14.1843 13.3118 13.3391 14.0487C12.4939 14.7857 11.4921 15.3208 10.4095 15.6134ZM1.72052 11.3596L5.21125 11.3598C5.47003 13.1183 5.96671 14.6087 6.59007 15.6135C5.50755 15.3209 4.50576 14.7856 3.66056 14.0487C2.8152 13.3117 2.14868 12.3922 1.71118 11.3597L1.72052 11.3596ZM6.59924 1.3864C6.0326 2.29299 5.57548 3.59455 5.30346 5.132L1.95093 5.13215C2.42193 4.2201 3.07768 3.41602 3.8763 2.77116C4.67491 2.1263 5.59913 1.6547 6.58987 1.38656L6.59924 1.3864ZM15.0485 5.13215H11.7109C11.4389 3.59455 10.9836 2.29877 10.4151 1.38656C11.4049 1.65547 12.3279 2.12738 13.1256 2.77224C13.9233 3.41694 14.5781 4.2207 15.0485 5.13215ZM8.49976 15.8668C8.16915 15.8668 7.58364 15.3001 7.07934 14.0799C6.73658 13.2037 6.4957 12.291 6.36157 11.36H10.638C10.5039 12.291 10.2632 13.2037 9.92026 14.0799C9.41592 15.3001 8.83037 15.8668 8.49976 15.8668ZM8.49976 1.13369C8.83037 1.13369 9.41588 1.70034 9.92018 2.92058C10.2033 3.63523 10.4146 4.37606 10.5512 5.13247H6.4486C6.58508 4.37606 6.7965 3.63523 7.07942 2.92058C7.58376 1.70034 8.16931 1.13369 8.49976 1.13369ZM6.14248 8.50044C6.14201 7.75367 6.18611 7.00754 6.27476 6.26596H10.7247C10.8132 7.00758 10.8575 7.75371 10.857 8.50044C10.857 9.08408 10.8286 9.66396 10.7777 10.2269H6.22163C6.17069 9.66412 6.14248 9.08424 6.14248 8.50044ZM5.08102 10.2269H1.33918C1.02166 8.91672 1.07058 7.54444 1.4808 6.26034H5.13199C5.04957 7.00412 5.00859 7.75212 5.00922 8.50044C5.00922 9.09169 5.03366 9.66971 5.08102 10.2269ZM11.8678 6.26018L15.519 6.26034C15.9291 7.54443 15.9782 8.91675 15.6607 10.2269H11.9188C11.966 9.66021 11.9906 9.09356 11.9906 8.50043C11.9909 7.75399 11.95 7.00802 11.8679 6.26596L11.8678 6.26018Z" fill="currentColor"/>
</svg>
