<svg width="24" height="24" viewBox="0 0 24 24" fill="none" xmlns="http://www.w3.org/2000/svg">
<g clip-path="url(#clip0_411_5085)">
<path fill-rule="evenodd" clip-rule="evenodd" d="M0 12C0 5.3726 5.3726 0 12 0C18.6274 0 24 5.3726 24 12C24 18.6274 18.6274 24 12 24C5.3726 24 0 18.6274 0 12ZM12.0006 5.6C10.2625 5.6 10.0443 5.6076 9.36165 5.63865C8.6803 5.66985 8.21525 5.77775 7.8083 5.936C7.38735 6.09945 7.0303 6.31815 6.67455 6.674C6.31855 7.02975 6.09985 7.3868 5.93585 7.8076C5.7772 8.2147 5.6692 8.6799 5.63855 9.36095C5.608 10.0437 5.6 10.2619 5.6 12C5.6 13.7382 5.60775 13.9557 5.63865 14.6383C5.67 15.3197 5.77785 15.7847 5.936 16.1917C6.0996 16.6126 6.31825 16.9697 6.67415 17.3255C7.02975 17.6815 7.3868 17.9007 7.8075 18.0641C8.2147 18.2224 8.6799 18.3302 9.3611 18.3615C10.0438 18.3925 10.2618 18.4002 11.9998 18.4002C13.7381 18.4002 13.9556 18.3925 14.6383 18.3615C15.3196 18.3302 15.7851 18.2224 16.1924 18.0641C16.6132 17.9007 16.9697 17.6815 17.3253 17.3255C17.6813 16.9697 17.9 16.6126 18.064 16.1919C18.2213 15.7848 18.3293 15.3196 18.3613 14.6385C18.392 13.9558 18.4 13.7382 18.4 12C18.4 10.2619 18.392 10.0438 18.3613 9.3611C18.3293 8.67975 18.2213 8.2147 18.064 7.80775C17.9 7.3868 17.6813 7.02975 17.3253 6.674C16.9693 6.318 16.6133 6.09935 16.192 5.936C15.7839 5.77775 15.3186 5.66985 14.6373 5.63865C13.9546 5.6076 13.7373 5.6 11.9986 5.6H12.0006Z" fill="currentColor"/>
<path fill-rule="evenodd" clip-rule="evenodd" d="M11.4265 6.75331C11.5969 6.75306 11.787 6.75331 12.0006 6.75331C13.7094 6.75331 13.912 6.75946 14.5868 6.79011C15.2108 6.81866 15.5495 6.92291 15.7751 7.01051C16.0737 7.12651 16.2867 7.26516 16.5105 7.48916C16.7345 7.71316 16.8732 7.92651 16.9895 8.22521C17.0771 8.45051 17.1815 8.78921 17.2099 9.41321C17.2405 10.0879 17.2472 10.2906 17.2472 11.9986C17.2472 13.7066 17.2405 13.9093 17.2099 14.5839C17.1813 15.2079 17.0771 15.5466 16.9895 15.7719C16.8735 16.0706 16.7345 16.2833 16.5105 16.5072C16.2865 16.7312 16.0739 16.8698 15.7751 16.9858C15.5497 17.0738 15.2108 17.1778 14.5868 17.2064C13.9121 17.237 13.7094 17.2437 12.0006 17.2437C10.2917 17.2437 10.0891 17.237 9.41446 17.2064C8.79046 17.1776 8.45176 17.0733 8.22606 16.9857C7.92736 16.8697 7.71401 16.731 7.49001 16.507C7.26601 16.283 7.12736 16.0702 7.01111 15.7714C6.92351 15.5461 6.81911 15.2074 6.79071 14.5834C6.76001 13.9087 6.75391 13.7061 6.75391 11.997C6.75391 10.2879 6.76001 10.0863 6.79071 9.41161C6.81921 8.78761 6.92351 8.44891 7.01111 8.22331C7.12711 7.92466 7.26601 7.71131 7.49001 7.48731C7.71401 7.26331 7.92736 7.12466 8.22606 7.00836C8.45166 6.92036 8.79046 6.81636 9.41446 6.78771C10.0049 6.76106 10.2337 6.75306 11.4265 6.75171V6.75331ZM15.4169 7.81596C14.9929 7.81596 14.6489 8.15961 14.6489 8.58371C14.6489 9.00771 14.9929 9.35171 15.4169 9.35171C15.8409 9.35171 16.1849 9.00771 16.1849 8.58371C16.1849 8.15971 15.8409 7.81596 15.4169 7.81596ZM12.0006 8.71331C10.1855 8.71331 8.71391 10.185 8.71391 12C8.71391 13.8151 10.1855 15.2861 12.0006 15.2861C13.8157 15.2861 15.2868 13.8151 15.2868 12C15.2868 10.185 13.8157 8.71331 12.0006 8.71331Z" fill="currentColor"/>
<path fill-rule="evenodd" clip-rule="evenodd" d="M12.0007 9.8667C13.1788 9.8667 14.134 10.8218 14.134 12C14.134 13.1782 13.1788 14.1334 12.0007 14.1334C10.8224 14.1334 9.86731 13.1782 9.86731 12C9.86731 10.8218 10.8224 9.8667 12.0007 9.8667Z" fill="currentColor"/>
</g>
<defs>
<clipPath id="clip0_411_5085">
<rect width="24" height="24" fill="white"/>
</clipPath>
</defs>
</svg>
