<svg width="24" height="24" viewBox="0 0 24 24" fill="none" xmlns="http://www.w3.org/2000/svg">
<g clip-path="url(#clip0_565_3620)">
<path d="M11.9997 2.36035C6.67947 2.36035 2.36646 6.67602 2.36646 11.9994C2.36646 17.3225 6.67947 21.6387 11.9997 21.6387C17.3202 21.6387 21.6334 17.3227 21.6334 11.9994C21.6334 6.67602 17.3202 2.36035 11.9997 2.36035ZM16.7024 9.60468C16.7024 9.60468 16.9314 10.7405 16.1095 12.7359C15.2873 14.7312 13.2528 16.6187 10.4505 16.794C7.64791 16.9692 6.13845 15.7289 6.13845 15.7289C8.24057 15.8907 9.1702 15.0279 9.66875 14.7447C7.71504 14.4885 7.43204 13.019 7.43204 13.019C7.62059 13.1 8.19993 13.073 8.50991 12.9922C6.59685 12.5204 6.55637 10.5925 6.55637 10.5925C6.55637 10.5925 7.2703 10.9565 7.67456 10.889C5.82846 9.48685 6.90667 7.65335 6.90667 7.65335C9.34543 10.3229 11.9323 10.1745 11.9323 10.1745L11.9439 10.192C11.897 10.004 11.8716 9.80735 11.8716 9.60485C11.8716 8.27018 12.953 7.18835 14.2869 7.18835C14.9915 7.18835 15.6256 7.49052 16.0672 7.97218L16.0826 7.96352C16.9447 7.90952 17.5782 7.45118 17.5782 7.45118C17.3157 8.21852 16.758 8.57602 16.5251 8.69635C16.5281 8.70352 16.531 8.71068 16.5336 8.71768C16.8349 8.64468 17.6433 8.44685 17.8614 8.38152C17.3895 9.24418 16.7024 9.60468 16.7024 9.60468Z" fill="currentColor"/>
<path fill-rule="evenodd" clip-rule="evenodd" d="M0 12C0 5.3726 5.3726 0 12 0C18.6274 0 24 5.3726 24 12C24 18.6274 18.6274 24 12 24C5.3726 24 0 18.6274 0 12ZM12.0006 5.6C10.2625 5.6 10.0443 5.6076 9.36165 5.63865C8.6803 5.66985 8.21525 5.77775 7.8083 5.936C7.38735 6.09945 7.0303 6.31815 6.67455 6.674C6.31855 7.02975 6.09985 7.3868 5.93585 7.8076C5.7772 8.2147 5.6692 8.6799 5.63855 9.36095C5.608 10.0437 5.6 10.2619 5.6 12C5.6 13.7382 5.60775 13.9557 5.63865 14.6383C5.67 15.3197 5.77785 15.7847 5.936 16.1917C6.0996 16.6126 6.31825 16.9697 6.67415 17.3255C7.02975 17.6815 7.3868 17.9007 7.8075 18.0641C8.2147 18.2224 8.6799 18.3302 9.3611 18.3615C10.0438 18.3925 10.2618 18.4002 11.9998 18.4002C13.7381 18.4002 13.9556 18.3925 14.6383 18.3615C15.3196 18.3302 15.7851 18.2224 16.1924 18.0641C16.6132 17.9007 16.9697 17.6815 17.3253 17.3255C17.6813 16.9697 17.9 16.6126 18.064 16.1919C18.2213 15.7848 18.3293 15.3196 18.3613 14.6385C18.392 13.9558 18.4 13.7382 18.4 12C18.4 10.2619 18.392 10.0438 18.3613 9.3611C18.3293 8.67975 18.2213 8.2147 18.064 7.80775C17.9 7.3868 17.6813 7.02975 17.3253 6.674C16.9693 6.318 16.6133 6.09935 16.192 5.936C15.7839 5.77775 15.3186 5.66985 14.6373 5.63865C13.9546 5.6076 13.7373 5.6 11.9986 5.6H12.0006Z" fill="currentColor"/>
</g>
<defs>
<clipPath id="clip0_565_3620">
<rect width="24" height="24" fill="currentColor"/>
</clipPath>
</defs>
</svg>
